<?xml version="1.0" encoding="iso-8859-1"?>
<!-- Generator: Adobe Illustrator 19.0.0, SVG Export Plug-In . SVG Version: 6.00 Build 0)  -->
<svg version="1.1" id="Layer_1" xmlns="http://www.w3.org/2000/svg" xmlns:xlink="http://www.w3.org/1999/xlink" x="0px" y="0px"
	 viewBox="0 0 512.005 512.005" style="enable-background:new 0 0 512.005 512.005;" xml:space="preserve">
<g>
	<circle style="fill:#2BA5F7;" cx="255.164" cy="256.003" r="255.164"/>
	<circle style="fill:#2BA5F7;" cx="256.841" cy="256.003" r="255.164"/>
</g>
<path style="fill:#A81004;" d="M353.682,387.394c0,18.045-8.436,24.236-22.471,25.485c-0.24-0.643-0.479-1.286-0.731-1.904
	c-9.004-22.774-141.648-22.774-150.639,0c-0.252,0.618-0.492,1.261-0.731,1.904c-14.035-1.248-22.471-7.44-22.471-25.485
	c0-41.26,44.11-74.714,98.522-74.714S353.682,346.134,353.682,387.394z"/>
<path style="fill:#F95428;" d="M330.48,410.975c0.252,0.618,0.492,1.261,0.731,1.904c-18.07,1.614-45.434-4.943-76.051-4.943
	s-57.981,6.557-76.051,4.943c0.24-0.643,0.479-1.286,0.731-1.904c8.991-22.774,25.548-38.019,44.463-38.019
	c11.563,0,22.244,5.7,30.857,15.321c8.613-9.621,19.281-15.321,30.844-15.321C304.932,372.957,321.476,388.201,330.48,410.975z"/>
<g>
	<path style="fill:#4D4D4D;" d="M183.331,174.302c-3.695-3.693-9.682-3.693-13.375,0l-28.443,28.443l-28.443-28.443
		c-3.693-3.693-9.681-3.693-13.375,0c-3.693,3.693-3.693,9.682,0,13.374l28.443,28.444l-28.443,28.443
		c-3.693,3.693-3.693,9.682,0,13.374c1.847,1.846,4.269,2.77,6.688,2.77s4.841-0.923,6.688-2.77l28.443-28.443l28.443,28.443
		c1.847,1.847,4.267,2.77,6.688,2.77c2.42,0,4.841-0.923,6.688-2.77c3.693-3.693,3.693-9.682,0-13.374l-28.443-28.443l28.443-28.444
		C187.023,183.983,187.023,177.994,183.331,174.302z"/>
	<path style="fill:#4D4D4D;" d="M382.184,216.121l28.443-28.444c3.693-3.693,3.693-9.682,0-13.374
		c-3.695-3.693-9.682-3.693-13.375,0l-28.443,28.443l-28.443-28.443c-3.693-3.693-9.681-3.693-13.375,0
		c-3.693,3.693-3.693,9.682,0,13.374l28.443,28.444l-28.443,28.443c-3.693,3.693-3.693,9.682,0,13.374
		c1.847,1.846,4.268,2.77,6.688,2.77s4.841-0.923,6.688-2.77l28.443-28.443l28.443,28.443c1.847,1.847,4.267,2.77,6.688,2.77
		c2.42,0,4.841-0.923,6.688-2.77c3.693-3.693,3.693-9.682,0-13.374L382.184,216.121z"/>
</g>
<g>
</g>
<g>
</g>
<g>
</g>
<g>
</g>
<g>
</g>
<g>
</g>
<g>
</g>
<g>
</g>
<g>
</g>
<g>
</g>
<g>
</g>
<g>
</g>
<g>
</g>
<g>
</g>
<g>
</g>
</svg>
